<?xml version="1.0" standalone="no"?>
<!DOCTYPE svg PUBLIC "-//W3C//DTD SVG 20010904//EN"
 "http://www.w3.org/TR/2001/REC-SVG-20010904/DTD/svg10.dtd">
<svg version="1.0" xmlns="http://www.w3.org/2000/svg"
 width="431.000000pt" height="579.000000pt" viewBox="0 0 431.000000 579.000000"
 preserveAspectRatio="xMidYMid meet">

<g transform="translate(0.000000,579.000000) scale(0.100000,-0.100000)"
fill="#000000" stroke="none">
<path d="M2690 5769 c0 -5 14 -9 32 -9 36 0 31 12 -7 16 -14 1 -25 -2 -25 -7z"/>
<path d="M2646 5761 c-4 -5 3 -7 14 -4 23 6 26 13 6 13 -8 0 -17 -4 -20 -9z"/>
<path d="M2760 5761 c0 -6 5 -13 12 -17 7 -5 8 -3 3 6 -6 10 -4 12 9 7 10 -4
15 -3 11 3 -8 13 -35 13 -35 1z"/>
<path d="M2607 5745 c-4 -8 -3 -16 1 -19 4 -3 9 4 9 15 2 23 -3 25 -10 4z"/>
<path d="M2810 5745 c-10 -12 -10 -15 2 -15 8 0 15 7 15 15 0 8 -1 15 -2 15
-2 0 -8 -7 -15 -15z"/>
<path d="M2856 5708 c3 -4 12 -4 21 -1 10 4 14 2 10 -4 -3 -5 0 -10 8 -10 11
0 12 4 4 13 -11 13 -51 15 -43 2z"/>
<path d="M1527 5662 c-10 -2 -17 -9 -17 -15 0 -7 -4 -6 -10 3 -8 13 -12 13
-32 1 -16 -10 -23 -10 -26 -2 -2 6 -8 11 -13 11 -6 0 -7 -4 -4 -10 3 -5 2 -10
-4 -10 -5 0 -11 5 -13 12 -3 7 -9 8 -18 3 -8 -5 -41 -10 -74 -11 -65 -2 -92
-6 -102 -16 -3 -4 8 -4 24 -2 17 3 33 1 36 -5 3 -5 -3 -7 -14 -4 -11 3 -20 1
-20 -5 0 -6 -8 -9 -17 -7 -10 2 -25 4 -33 4 -13 1 -13 2 0 11 8 5 10 10 4 10
-6 0 -22 -11 -35 -23 -27 -27 -86 -47 -73 -25 5 10 4 11 -7 1 -7 -7 -21 -13
-30 -13 -9 0 -29 -7 -45 -15 -24 -12 -26 -15 -10 -21 11 -4 21 -1 27 7 7 11 9
9 9 -8 0 -19 -4 -21 -42 -17 -29 3 -37 2 -24 -4 18 -8 18 -9 2 -15 -24 -10
-26 -9 -26 9 0 14 -1 14 -16 0 -8 -9 -21 -16 -29 -16 -7 0 -15 -7 -19 -15 -3
-8 -13 -15 -23 -15 -17 1 -16 2 1 15 24 18 19 19 -23 4 -24 -9 -29 -14 -19
-20 9 -6 5 -9 -14 -9 -16 0 -28 -4 -28 -10 0 -5 5 -10 12 -10 6 0 8 -3 5 -6
-4 -4 -13 -1 -22 6 -11 9 -15 9 -15 1 0 -7 -3 -10 -8 -7 -4 2 -6 -14 -5 -36
l2 -41 -25 24 c-20 19 -26 20 -37 9 -7 -8 -8 -11 -1 -7 7 4 15 0 18 -9 5 -14
1 -16 -22 -11 -38 8 -52 -8 -45 -51 5 -26 3 -33 -6 -27 -7 4 -11 16 -8 26 7
25 -7 33 -24 13 -10 -13 -10 -17 1 -24 23 -14 4 -23 -22 -9 -12 6 -20 8 -16 4
13 -14 -11 -45 -29 -38 -13 5 -15 2 -10 -11 5 -13 3 -17 -7 -13 -10 4 -13 1
-9 -9 4 -12 -6 -18 -28 -16 -10 2 -43 -37 -45 -53 -1 -8 3 -15 9 -15 5 0 7 -3
4 -6 -4 -4 -14 -1 -24 7 -9 8 -14 9 -11 4 4 -6 -15 -33 -42 -59 -41 -40 -47
-52 -39 -67 10 -20 8 -21 -26 -23 -11 -1 -20 -8 -20 -17 0 -8 -8 -23 -18 -33
-9 -10 -15 -21 -12 -26 3 -4 -2 -13 -10 -20 -8 -7 -15 -22 -15 -34 0 -40 -12
-66 -29 -64 -11 2 -15 -3 -13 -19 2 -13 -4 -26 -16 -32 -14 -7 -18 -18 -14
-41 2 -16 -1 -36 -7 -44 -8 -10 -9 -16 -1 -21 5 -3 10 -13 10 -21 0 -9 -5 -12
-11 -8 -7 4 -7 -1 1 -16 8 -15 8 -20 1 -16 -10 7 -39 -14 -44 -31 -1 -4 -4 -7
-7 -6 -3 1 -10 -9 -17 -23 -6 -13 -7 -24 -2 -24 5 0 9 -7 9 -16 0 -8 -4 -13
-8 -10 -5 3 -9 -1 -9 -9 0 -8 4 -12 9 -9 13 8 9 -38 -5 -66 -25 -47 -36 -89
-25 -92 10 -4 1 -78 -11 -78 -7 0 -3 -957 4 -977 2 -7 14 -13 25 -13 17 0 19
4 14 26 -6 22 -4 25 7 19 12 -8 12 -6 0 8 -16 20 -7 82 16 105 10 11 12 17 4
20 -6 2 -11 8 -11 14 0 6 6 8 14 5 10 -4 16 2 19 16 l4 22 2 -22 c0 -13 6 -23
12 -23 7 0 8 12 4 33 -7 30 -6 31 9 12 15 -19 15 -19 9 5 -3 14 -11 29 -17 33
-8 6 -7 10 1 14 9 3 10 10 3 23 -7 13 -6 20 3 23 9 4 9 6 0 6 -7 1 -13 7 -13
14 0 8 13 12 40 10 42 -2 43 -1 40 55 -1 18 3 32 10 32 7 0 10 -11 7 -27 -2
-16 -2 -22 0 -15 3 6 9 12 14 12 5 0 8 -3 7 -7 -2 -5 2 -8 7 -9 6 0 9 7 7 18
-2 10 4 21 15 26 10 4 19 13 21 20 1 8 -2 11 -8 7 -5 -3 -10 0 -10 8 0 7 11
19 25 25 24 11 36 0 15 -13 -6 -3 -10 -11 -10 -16 0 -6 12 4 27 23 16 18 35
38 43 45 8 7 11 13 5 13 -5 0 -3 5 5 10 8 5 15 15 15 22 1 7 6 12 11 11 6 -1
11 4 11 12 0 15 -24 28 -37 20 -4 -3 -14 3 -21 13 -12 15 -12 16 2 5 10 -8 19
-9 25 -3 6 6 19 4 37 -5 16 -8 29 -10 32 -4 4 5 -2 13 -12 17 -10 4 -19 19
-20 35 -1 15 2 25 8 22 5 -4 9 -14 9 -24 0 -10 7 -18 14 -18 12 0 15 25 15
144 -1 78 -4 141 -8 138 -9 -5 -7 23 4 48 4 10 2 24 -6 34 -8 9 -9 14 -3 10 8
-5 9 6 3 40 -10 51 -5 64 14 43 8 -8 8 -11 0 -6 -7 4 -9 -1 -6 -15 5 -19 7
-18 19 10 7 17 11 37 8 44 -3 8 1 27 7 43 7 16 11 37 10 48 -2 12 1 16 10 10
9 -5 10 -2 6 11 -5 11 -1 22 10 31 17 12 17 13 -2 9 -11 -2 -24 -4 -29 -4 -4
-1 -6 -8 -3 -16 4 -8 2 -17 -3 -20 -6 -4 -10 3 -10 14 0 11 7 24 17 29 10 6
14 16 10 26 -4 9 -3 16 2 16 5 0 11 10 14 21 4 14 11 20 21 16 8 -3 17 1 20 9
3 8 2 13 -2 10 -4 -2 -8 4 -8 15 0 10 4 19 9 19 5 0 7 7 3 15 -3 10 1 15 13
15 10 0 24 7 31 15 7 8 17 12 23 8 6 -4 7 -1 2 6 -5 9 -10 10 -18 2 -14 -14
-60 -15 -52 -1 4 6 10 8 15 5 4 -3 13 2 20 11 7 8 19 13 26 10 7 -3 16 0 20 6
4 7 3 8 -5 4 -8 -6 -11 4 -9 33 3 40 11 51 23 31 4 -7 12 -7 24 0 10 5 20 7
23 5 2 -3 4 11 3 29 -1 24 2 33 10 29 7 -2 16 0 19 6 4 6 13 8 21 5 8 -4 12
-10 9 -15 -3 -5 -10 -7 -15 -4 -5 4 -17 1 -26 -4 -17 -10 -17 -10 1 -11 16 0
17 -2 5 -17 -7 -10 1 -5 18 10 17 16 30 35 29 44 0 9 5 18 13 21 10 3 11 0 5
-9 -7 -12 -5 -12 9 0 18 14 24 26 8 17 -14 -9 -45 20 -36 34 6 10 11 9 21 -4
8 -11 14 -13 19 -7 3 6 1 11 -4 11 -6 0 -11 5 -11 11 0 6 8 8 19 4 13 -4 24 1
35 16 9 13 19 19 23 15 5 -5 2 -11 -5 -13 -6 -3 -9 -10 -6 -15 4 -7 2 -8 -4
-4 -7 4 -12 2 -12 -3 0 -18 18 -12 34 11 9 12 16 19 16 14 0 -5 7 -3 16 5 8 7
13 21 11 31 -3 10 -1 18 3 18 5 0 11 -8 13 -17 4 -17 5 -17 6 -1 1 12 8 17 24
15 16 -1 22 3 22 18 0 14 7 19 20 18 18 -1 18 0 -4 18 -26 21 -24 23 13 9 16
-6 26 -6 26 0 0 5 17 8 38 6 20 -1 47 4 60 12 12 8 22 11 22 8 0 -3 15 0 34 8
19 8 37 12 40 8 3 -3 6 7 6 22 0 17 4 25 11 21 6 -4 8 -14 4 -24 -5 -12 -3
-13 6 -4 6 6 19 9 28 5 13 -5 14 -3 4 9 -9 11 -6 14 18 15 16 1 26 -3 22 -9
-3 -5 3 -6 16 -2 27 8 268 8 307 0 22 -5 25 -4 14 4 -8 6 -11 11 -6 11 5 0 19
-8 30 -17 17 -15 18 -15 8 -1 -11 14 -9 16 22 16 25 0 33 -4 30 -13 -6 -15 34
-41 44 -29 4 4 1 9 -5 11 -23 8 -14 28 12 29 21 2 24 -1 14 -12 -6 -8 -7 -14
-2 -14 6 0 23 -11 38 -24 23 -20 33 -23 48 -15 23 13 37 2 17 -12 -13 -9 -12
-10 2 -6 9 3 21 0 27 -7 6 -8 22 -11 37 -8 17 3 31 -2 45 -17 11 -11 23 -21
28 -21 4 0 14 -11 21 -25 7 -14 18 -25 24 -25 6 0 20 -12 31 -27 18 -22 23
-24 28 -10 3 9 3 16 -1 14 -10 -3 -84 55 -78 61 7 6 -20 32 -33 32 -6 0 -11 7
-11 16 0 13 3 14 15 4 24 -20 31 15 9 48 -10 15 -21 50 -24 77 -3 28 -10 49
-15 48 -6 -1 -10 14 -10 33 0 19 3 34 8 34 4 0 7 -5 7 -12 0 -9 3 -9 12 0 19
19 28 14 17 -11 -7 -15 -7 -30 1 -47 10 -25 10 -25 5 3 -4 18 0 33 9 43 8 8
12 22 9 31 -4 11 -3 14 6 9 13 -9 11 15 -3 25 -5 4 -5 12 -1 18 5 9 10 7 19
-5 12 -15 14 -14 32 8 11 14 26 27 34 31 13 5 13 6 0 6 -8 1 -24 -11 -37 -26
-18 -22 -22 -24 -23 -10 0 9 5 17 10 17 6 0 9 5 8 12 -2 6 15 15 38 20 25 5
41 14 41 23 0 8 -4 12 -9 9 -5 -3 -14 -1 -21 5 -8 6 -18 6 -27 1 -10 -6 -19
-2 -31 16 -9 14 -19 26 -23 26 -19 0 -45 11 -41 18 7 11 -32 17 -97 14 -55 -2
-56 -1 -52 23 3 17 1 22 -7 18 -6 -4 -15 -1 -20 6 -5 8 -9 10 -9 4 0 -11 -65
-13 -76 -2 -4 4 -1 7 6 7 32 0 -5 14 -43 17 -23 1 -53 3 -67 5 -14 1 -50 -1
-80 -5 -36 -4 -46 -3 -30 2 14 5 21 10 15 11 -22 3 -93 5 -108 2z m363 -62
c-8 -5 -24 -9 -35 -9 l-20 0 20 9 c11 5 27 9 35 9 13 1 13 0 0 -9z m30 -10 c0
-13 -7 -20 -20 -20 -19 0 -19 1 -2 19 22 25 22 25 22 1z m-725 -10 c-28 -12
-37 -12 -30 0 3 6 16 10 28 9 21 0 21 -1 2 -9z m943 -85 c-3 -3 -9 2 -12 12
-6 14 -5 15 5 6 7 -7 10 -15 7 -18z m-1258 -49 c0 -8 -10 -13 -25 -13 -31 0
-33 14 -2 20 12 2 23 5 25 6 1 0 2 -5 2 -13z m-220 -147 c0 -10 -4 -19 -9 -19
-5 0 -8 11 -7 24 1 28 16 24 16 -5z m1412 -96 c3 -21 2 -47 -1 -58 -4 -17 -6
-15 -12 10 -10 45 -10 85 0 85 5 0 11 -17 13 -37z m-822 -15 c0 -5 -5 -8 -11
-8 -5 0 -8 -4 -5 -9 4 -5 -4 -7 -16 -3 -13 3 -19 1 -15 -6 8 -12 -19 -10 -30
3 -4 4 -2 5 5 1 6 -4 12 -2 12 3 0 6 -4 11 -10 11 -5 0 -10 3 -10 8 0 4 18 7
40 7 22 0 40 -3 40 -7z m683 -17 c3 -13 0 -18 -12 -16 -9 1 -15 5 -13 8 1 4 2
12 2 17 0 18 17 11 23 -9z m167 -20 c0 -5 3 -18 7 -28 6 -17 6 -17 -10 -1 -19
18 -22 38 -7 38 6 0 10 -4 10 -9z m-83 -27 c-3 -3 -12 -4 -19 -1 -8 3 -5 6 6
6 11 1 17 -2 13 -5z m-1577 -35 c0 -5 -7 -6 -15 -3 -10 4 -15 0 -15 -11 0 -11
5 -15 15 -11 8 3 15 1 15 -4 0 -11 -11 -13 -34 -4 -15 6 -22 35 -10 46 7 8 44
-3 44 -13z m-60 -28 c0 -5 -9 -11 -20 -14 -11 -3 -20 -10 -20 -17 0 -6 4 -9 9
-6 5 3 8 -5 7 -18 -1 -25 -16 -25 -16 0 0 8 -5 14 -12 14 -6 0 -1 11 12 25 24
26 40 32 40 16z m564 -43 c-3 -5 -14 -2 -24 7 -11 10 -24 14 -31 9 -8 -5 -10
-3 -5 5 5 7 14 10 22 7 8 -3 14 0 14 7 0 7 7 3 15 -7 8 -10 12 -23 9 -28z
m-657 -93 c-27 -26 -42 -16 -16 11 13 14 25 20 27 15 2 -6 -3 -18 -11 -26z
m-147 -375 c0 -5 -4 -10 -10 -10 -5 0 -10 5 -10 10 0 6 5 10 10 10 6 0 10 -4
10 -10z m385 -90 c3 -5 1 -10 -4 -10 -6 0 -11 5 -11 10 0 6 2 10 4 10 3 0 8
-4 11 -10z m-56 -157 c0 -10 -4 -27 -9 -38 -7 -16 -9 -13 -9 18 -1 20 4 37 9
37 6 0 10 -8 9 -17z m-432 -195 c-3 -7 -5 -2 -5 12 0 14 2 19 5 13 2 -7 2 -19
0 -25z m370 -282 c-1 -11 -10 -28 -19 -38 -22 -22 -36 -24 -18 -3 10 12 10 15
-1 16 -9 0 -10 2 -3 5 7 3 10 13 7 24 -4 14 0 19 15 17 15 -1 20 -7 19 -21z"/>
<path d="M2486 5625 c-9 -26 -7 -32 5 -12 6 10 9 21 6 23 -2 3 -7 -2 -11 -11z"/>
<path d="M2946 5632 c-3 -5 1 -9 9 -9 8 0 12 4 9 9 -3 4 -7 8 -9 8 -2 0 -6 -4
-9 -8z"/>
<path d="M1110 5600 c-13 -8 -12 -10 3 -10 9 0 17 5 17 10 0 12 -1 12 -20 0z"/>
<path d="M2967 5603 c-4 -3 -7 -11 -7 -17 0 -6 5 -5 12 2 6 6 9 14 7 17 -3 3
-9 2 -12 -2z"/>
<path d="M2007 5589 c7 -7 15 -10 18 -7 3 3 -2 9 -12 12 -14 6 -15 5 -6 -5z"/>
<path d="M2977 5573 c-4 -3 -7 -15 -7 -26 0 -11 3 -17 7 -14 3 4 12 -1 19 -10
11 -15 11 -14 7 10 -3 15 -10 24 -16 20 -6 -4 -8 0 -4 10 7 18 5 21 -6 10z"/>
<path d="M2452 5525 c0 -16 2 -22 5 -12 2 9 2 23 0 30 -3 6 -5 -1 -5 -18z"/>
<path d="M2293 5497 c-2 -4 -9 -4 -15 -1 -7 4 -8 2 -4 -4 4 -7 2 -12 -5 -12
-7 0 -9 -3 -6 -6 4 -4 12 -3 19 2 7 5 43 9 79 9 43 0 66 4 66 11 0 8 -9 9 -28
4 -19 -6 -29 -4 -33 3 -3 9 -5 8 -5 0 -1 -7 -6 -13 -12 -13 -5 0 -8 3 -6 8 3
4 -6 7 -20 7 -14 0 -27 -3 -30 -8z"/>
<path d="M3013 5499 c-25 -9 0 -19 35 -15 17 3 39 9 49 14 13 8 8 10 -25 9
-23 -1 -50 -5 -59 -8z"/>
<path d="M3122 5495 c-11 -13 -9 -15 8 -15 12 0 19 4 16 9 -4 5 0 12 6 14 9 4
8 6 -2 6 -8 0 -21 -6 -28 -14z"/>
<path d="M2445 5480 c-3 -5 -1 -10 4 -10 6 0 11 5 11 10 0 6 -2 10 -4 10 -3 0
-8 -4 -11 -10z"/>
<path d="M3165 5480 c-3 -6 1 -7 9 -4 10 4 16 1 16 -7 0 -7 3 -9 6 -6 4 3 15
2 25 -4 11 -5 19 -7 19 -5 0 6 -55 36 -64 36 -3 0 -8 -4 -11 -10z"/>
<path d="M3246 5442 c-3 -5 1 -9 9 -9 8 0 12 4 9 9 -3 4 -7 8 -9 8 -2 0 -6 -4
-9 -8z"/>
<path d="M715 5400 c-3 -5 -1 -10 4 -10 6 0 11 5 11 10 0 6 -2 10 -4 10 -3 0
-8 -4 -11 -10z"/>
<path d="M2633 5389 c-4 -16 -8 -17 -14 -7 -7 10 -9 9 -9 -4 0 -9 6 -19 13
-21 10 -4 10 -6 0 -6 -19 -1 -16 -62 3 -75 11 -9 13 -20 8 -40 l-7 -29 -19 26
c-17 23 -27 27 -69 27 -34 0 -48 -4 -44 -11 4 -6 28 -9 54 -7 41 3 46 1 49
-19 4 -24 -13 -32 -20 -11 -3 8 -20 11 -46 9 -25 -1 -42 2 -42 8 0 6 -7 11
-15 11 -13 0 -15 -15 -13 -92 l3 -93 50 3 c28 1 61 -3 75 -11 23 -11 25 -18
25 -77 0 -47 4 -64 13 -62 6 1 12 -5 12 -13 0 -12 16 -15 86 -15 50 0 83 4 79
9 -3 5 -1 12 5 16 16 10 12 75 -7 93 -15 15 -15 17 -1 20 9 2 18 12 21 23 5
19 27 27 27 9 0 -5 -4 -10 -10 -10 -5 0 -10 -3 -10 -7 0 -5 27 -6 60 -5 67 4
66 2 74 122 1 30 3 16 2 -32 -1 -47 2 -82 5 -76 4 6 8 5 11 -3 3 -8 6 34 7 94
1 68 -2 107 -9 107 -5 0 -10 -6 -11 -12 -1 -7 -5 -2 -9 12 -5 17 -8 19 -9 8
-1 -10 -7 -18 -13 -18 -9 0 -8 -4 2 -11 12 -9 12 -10 -3 -5 -10 3 -32 6 -48 6
-16 0 -29 5 -29 10 0 6 16 10 35 10 19 0 35 5 35 11 0 6 -20 9 -49 7 -27 -2
-47 -6 -44 -10 2 -5 -1 -8 -6 -8 -12 0 -14 14 -11 73 2 45 -17 50 -23 5 -2
-18 -3 -12 -1 15 l3 47 -82 2 -82 2 75 3 c106 5 115 23 11 23 -76 0 -83 -2
-88 -21z m125 -26 c-21 -2 -57 -2 -80 0 -24 2 -7 4 37 4 44 0 63 -2 43 -4z
m52 -114 c0 -5 -4 -9 -10 -9 -5 0 -10 7 -10 16 0 8 5 12 10 9 6 -3 10 -10 10
-16z m15 -37 c-3 -3 -11 0 -18 7 -9 10 -8 11 6 5 10 -3 15 -9 12 -12z m115
-160 c0 -4 -18 -6 -40 -4 -22 2 -40 6 -40 8 0 2 18 4 40 4 22 0 40 -3 40 -8z
m-300 -27 c0 -8 -4 -15 -10 -15 -5 0 -7 7 -4 15 4 8 8 15 10 15 2 0 4 -7 4
-15z m157 -97 c-2 -13 -4 -5 -4 17 -1 22 1 32 4 23 2 -10 2 -28 0 -40z"/>
<path d="M2810 5389 c0 -5 5 -7 10 -4 6 3 10 8 10 11 0 2 -4 4 -10 4 -5 0 -10
-5 -10 -11z"/>
<path d="M3295 5379 c4 -13 14 -31 21 -40 8 -9 11 -19 7 -22 -3 -4 2 -7 12 -7
15 0 15 -2 4 -16 -10 -13 -10 -17 2 -25 22 -14 33 -11 19 6 -6 8 -9 18 -6 23
3 5 -3 17 -14 27 -11 10 -17 22 -13 28 3 6 1 7 -5 3 -8 -5 -12 0 -12 13 0 11
-5 23 -11 27 -8 4 -9 -1 -4 -17z"/>
<path d="M2621 5254 c0 -11 3 -14 6 -6 3 7 2 16 -1 19 -3 4 -6 -2 -5 -13z"/>
<path d="M3350 5165 c-7 -9 -8 -15 -2 -15 5 0 12 7 16 15 3 8 4 15 2 15 -2 0
-9 -7 -16 -15z"/>
<path d="M3332 5120 c0 -14 2 -19 5 -12 2 6 2 18 0 25 -3 6 -5 1 -5 -13z"/>
<path d="M3300 5080 c0 -5 5 -10 11 -10 5 0 7 5 4 10 -3 6 -8 10 -11 10 -2 0
-4 -4 -4 -10z"/>
<path d="M2455 5040 c-3 -5 1 -10 10 -10 9 0 13 5 10 10 -3 6 -8 10 -10 10 -2
0 -7 -4 -10 -10z"/>
<path d="M2495 5040 c-4 -6 12 -10 40 -10 28 0 44 4 40 10 -3 6 -21 10 -40 10
-19 0 -37 -4 -40 -10z"/>
<path d="M3261 5017 c-13 -21 -12 -21 5 -5 10 10 16 20 13 22 -3 3 -11 -5 -18
-17z"/>
<path d="M2226 4982 c-3 -4 4 -9 15 -9 23 -2 25 3 4 10 -8 4 -16 3 -19 -1z"/>
<path d="M3193 4973 c9 -2 23 -2 30 0 6 3 -1 5 -18 5 -16 0 -22 -2 -12 -5z"/>
<path d="M2240 4942 c0 -10 -5 -23 -11 -29 -6 -6 -9 -17 -6 -25 3 -8 9 -2 16
15 7 19 15 26 23 21 10 -6 10 -5 1 8 -7 8 -10 18 -6 21 3 4 1 7 -5 7 -7 0 -12
-8 -12 -18z"/>
<path d="M3177 4935 c-4 -8 -3 -16 1 -19 4 -3 9 4 9 15 2 23 -3 25 -10 4z"/>
<path d="M3195 4875 c0 -13 3 -21 8 -18 4 2 7 10 7 18 0 8 -3 16 -7 18 -5 3
-8 -5 -8 -18z"/>
<path d="M2207 4840 c-4 -14 -6 -38 -6 -55 1 -24 3 -21 10 15 10 49 7 80 -4
40z"/>
<path d="M197 4833 c-4 -3 -7 -11 -7 -17 0 -6 5 -5 12 2 6 6 9 14 7 17 -3 3
-9 2 -12 -2z"/>
<path d="M2229 4823 c-8 -59 -7 -104 3 -137 7 -26 13 -35 15 -23 3 9 9 14 15
11 7 -4 8 -2 4 5 -4 6 -12 8 -18 5 -7 -5 -9 -1 -5 9 3 10 2 17 -4 17 -6 0 -8
22 -3 60 4 33 4 60 0 60 -3 0 -6 -3 -7 -7z"/>
<path d="M3206 4818 c3 -4 9 -8 15 -8 5 0 9 4 9 8 0 5 -7 9 -15 9 -8 0 -12 -4
-9 -9z"/>
<path d="M697 4814 c-4 -4 -7 -11 -7 -15 0 -10 24 -5 28 6 4 12 -12 18 -21 9z"/>
<path d="M3170 4657 c-28 -41 -31 -47 -26 -47 7 0 49 61 44 65 -2 2 -10 -6
-18 -18z"/>
<path d="M600 4661 c0 -6 5 -13 10 -16 6 -3 10 1 10 9 0 9 -4 16 -10 16 -5 0
-10 -4 -10 -9z"/>
<path d="M2266 4631 c-3 -5 0 -14 8 -20 15 -13 63 -25 52 -13 -4 4 -11 7 -14
8 -4 0 -15 4 -25 9 -15 6 -16 10 -5 16 9 6 9 9 1 9 -6 0 -14 -4 -17 -9z"/>
<path d="M2734 4616 c1 -9 7 -21 13 -27 9 -9 11 -7 9 5 -1 9 -7 21 -13 27 -9
9 -11 7 -9 -5z"/>
<path d="M95 4590 c3 -5 8 -10 11 -10 2 0 4 5 4 10 0 6 -5 10 -11 10 -5 0 -7
-4 -4 -10z"/>
<path d="M563 4581 c-11 -18 -8 -31 8 -31 5 0 6 7 3 15 -4 8 -1 15 5 15 6 0
11 5 11 10 0 16 -14 11 -27 -9z"/>
<path d="M2664 4590 c2 -16 20 -14 24 2 3 10 2 10 -6 -1 -7 -9 -11 -10 -15 -2
-4 7 -5 8 -3 1z"/>
<path d="M2770 4590 c0 -5 5 -10 11 -10 5 0 7 5 4 10 -3 6 -8 10 -11 10 -2 0
-4 -4 -4 -10z"/>
<path d="M3100 4579 c12 -9 11 -10 -7 -6 -14 3 -21 0 -20 -7 1 -6 -6 -10 -17
-9 -11 1 -15 -2 -9 -8 6 -6 22 -3 41 7 35 17 42 34 15 34 -16 0 -16 -2 -3 -11z"/>
<path d="M2641 4573 c3 -20 -2 -26 -11 -13 -7 11 -10 11 -10 2 0 -7 -4 -10
-10 -7 -6 4 -7 -1 -3 -12 6 -15 4 -16 -8 -6 -9 8 -20 9 -29 3 -11 -7 -11 -10
-2 -11 6 -1 18 -2 25 -3 17 -3 57 16 57 26 0 5 6 6 13 2 8 -5 8 -2 -2 9 -14
18 -22 22 -20 10z"/>
<path d="M2766 4558 c3 -4 11 -5 19 -1 21 7 19 12 -4 10 -11 0 -18 -5 -15 -9z"/>
<path d="M2340 4555 c0 -7 30 -13 34 -7 3 4 -4 9 -15 9 -10 1 -19 0 -19 -2z"/>
<path d="M2801 4551 c-11 -7 -6 -13 18 -26 26 -13 35 -14 47 -4 8 6 12 14 9
17 -2 3 -12 -1 -22 -9 -15 -12 -16 -12 -10 3 3 10 2 20 -3 23 -6 4 -10 1 -10
-4 0 -6 -5 -11 -11 -11 -5 0 -7 5 -4 10 8 12 4 12 -14 1z"/>
<path d="M2426 4531 c-15 -6 -16 -10 -7 -15 8 -5 20 -2 29 8 17 17 9 19 -22 7z"/>
<path d="M2535 4530 c-4 -7 -18 -9 -31 -6 -13 4 -24 2 -24 -3 0 -5 16 -8 35
-6 19 2 33 -1 30 -5 -3 -4 3 -14 12 -21 15 -12 16 -12 8 1 -5 8 -10 21 -11 28
-3 20 -11 25 -19 12z"/>
<path d="M2942 4528 c2 -6 11 -13 19 -16 11 -3 11 -1 -1 8 -13 9 -12 10 5 7
11 -2 19 -9 18 -15 -2 -7 4 -12 12 -12 13 0 13 3 3 20 -14 21 -62 28 -56 8z"/>
<path d="M3006 4531 c-9 -14 26 -23 38 -11 8 8 6 9 -8 4 -13 -5 -17 -4 -12 4
4 7 3 12 -3 12 -5 0 -12 -4 -15 -9z"/>
<path d="M2885 4510 c-16 -7 -14 -9 12 -7 17 0 29 5 27 9 -6 10 -13 9 -39 -2z"/>
<path d="M2586 4483 c1 -15 -2 -35 -7 -45 -6 -12 -6 -18 0 -18 5 0 9 -14 9
-30 -1 -17 2 -33 5 -37 4 -3 7 30 7 75 0 45 -4 82 -9 82 -4 0 -7 -12 -5 -27z"/>
<path d="M40 4420 c0 -5 5 -10 10 -10 6 0 10 5 10 10 0 6 -4 10 -10 10 -5 0
-10 -4 -10 -10z"/>
<path d="M37 4381 c-4 -17 -3 -21 5 -13 5 5 8 16 6 23 -3 8 -7 3 -11 -10z"/>
<path d="M3217 3153 c-4 -622 -5 -652 -26 -748 -50 -228 -152 -470 -266 -628
-242 -336 -555 -559 -935 -667 -193 -55 -273 -60 -915 -60 l-581 0 -34 -25
c-19 -14 -37 -31 -41 -37 -5 -7 -20 -14 -34 -15 -20 -1 -25 3 -25 23 0 13 5
24 10 24 6 0 10 -6 10 -12 0 -10 3 -9 9 1 5 7 13 11 19 7 5 -3 22 6 36 19 15
14 31 25 37 25 5 0 9 99 9 250 l0 250 -25 10 c-28 11 -31 20 -12 39 9 11 9 14
0 18 -7 2 -15 4 -19 3 -4 -1 -10 4 -14 10 -5 8 -9 6 -14 -5 -5 -14 -2 -16 14
-12 11 3 22 1 25 -4 3 -5 -14 -8 -39 -7 -31 2 -42 6 -36 13 5 6 5 17 0 25 -14
22 -12 27 9 33 26 6 34 -3 18 -22 -11 -14 -10 -14 6 -2 12 10 15 17 7 25 -13
13 -62 16 -77 4 -7 -6 -14 -5 -18 3 -6 8 -10 7 -16 -2 -6 -9 -9 -10 -9 -2 0
17 33 48 38 34 2 -6 11 -11 20 -11 15 1 15 2 -1 11 -9 6 -14 15 -11 21 4 6 3
8 -4 4 -5 -3 -13 0 -15 6 -4 10 -6 10 -6 0 -1 -18 -21 -5 -21 14 0 8 4 13 8
10 5 -3 9 1 9 9 0 8 -4 15 -9 15 -5 0 -7 4 -4 9 6 8 -31 63 -46 69 -5 2 -8 10
-8 18 0 9 -8 14 -17 13 -31 -3 -43 1 -43 12 0 8 4 8 13 1 8 -7 18 -7 27 -2 17
11 16 12 -30 15 -19 2 -38 4 -42 4 -12 1 -10 31 2 31 6 0 6 9 0 26 -13 34 -13
41 2 26 7 -7 16 -12 20 -12 4 0 -2 10 -14 22 -13 13 -32 21 -45 20 -13 -2 -23
2 -23 8 0 6 -5 8 -10 5 -6 -3 -10 1 -10 9 0 19 20 17 37 -4 9 -12 9 -5 1 30
-6 25 -17 52 -24 61 -22 24 -16 34 7 13 l21 -19 -16 30 c-8 17 -18 47 -21 67
-5 34 -8 37 -25 25 -19 -11 -20 -27 -20 -594 0 -382 3 -583 10 -583 13 0 13
-37 0 -45 -6 -4 -8 -11 -5 -16 4 -5 2 -9 -4 -9 -6 0 -9 14 -6 33 4 28 4 29 -4
7 -5 -14 -9 -121 -10 -237 l-1 -213 853 0 c1033 0 1034 0 1352 107 61 20 150
56 198 80 48 24 102 50 120 58 49 22 201 119 286 183 120 88 346 321 435 447
43 61 87 126 97 145 11 19 23 42 28 50 41 66 70 120 76 140 4 13 22 55 40 94
41 89 59 140 86 241 75 283 79 340 79 1036 l0 599 -219 0 -220 0 -4 -647z
m-3132 -1012 c3 -5 1 -12 -5 -16 -5 -3 -10 1 -10 9 0 18 6 21 15 7z m75 -231
c0 -5 -2 -10 -4 -10 -3 0 -8 5 -11 10 -3 6 -1 10 4 10 6 0 11 -4 11 -10z m74
-42 c-3 -4 1 -8 9 -8 8 0 19 -6 25 -13 9 -10 4 -13 -19 -15 -27 -2 -29 0 -29
35 0 27 3 34 9 23 6 -8 7 -18 5 -22z m-161 -788 c-3 -11 -7 -20 -9 -20 -2 0
-4 9 -4 20 0 11 4 20 9 20 5 0 7 -9 4 -20z m400 -6 c-7 -18 -27 -13 -31 9 -2
11 2 14 17 10 12 -3 17 -11 14 -19z m-93 -129 c-7 -9 -19 -14 -26 -11 -9 3
-11 0 -7 -11 4 -11 2 -14 -5 -9 -19 12 -14 24 16 40 32 17 40 13 22 -9z m-339
-174 c0 -69 -3 -126 -7 -126 -5 0 -9 68 -9 152 0 84 3 140 7 126 4 -14 8 -83
9 -152z m255 92 c-10 -10 -19 5 -10 18 6 11 8 11 12 0 2 -7 1 -15 -2 -18z
m-28 -20 c-5 -7 -15 -11 -21 -10 -6 1 -11 -3 -12 -10 0 -6 -3 -14 -7 -18 -4
-4 -6 6 -6 22 1 20 8 33 22 39 25 11 40 -4 24 -23z m-78 -54 c0 -20 -77 -89
-99 -89 -13 0 -19 4 -16 11 4 6 13 8 21 5 8 -3 14 -2 14 3 0 5 10 11 21 14 15
4 20 11 15 22 -3 10 -2 14 5 10 6 -4 13 2 16 14 6 22 23 29 23 10z m-100 -103
c0 -3 -4 -8 -10 -11 -5 -3 -10 -1 -10 4 0 6 5 11 10 11 6 0 10 -2 10 -4z"/>
<path d="M207 3553 c-11 -11 -17 -13 -17 -5 0 18 -17 15 -24 -4 -4 -11 -2 -15
8 -11 8 3 16 2 18 -3 2 -4 11 3 21 16 21 28 18 31 -6 7z"/>
<path d="M173 3475 c0 -8 4 -12 9 -9 4 3 8 9 8 15 0 5 -4 9 -8 9 -5 0 -9 -7
-9 -15z"/>
<path d="M86 3335 c-4 -17 -2 -32 5 -39 9 -8 10 -8 5 2 -4 7 -3 18 3 25 5 7 6
19 2 26 -6 9 -10 5 -15 -14z"/>
<path d="M40 3196 c0 -8 -6 -16 -12 -19 -7 -2 -9 -8 -5 -13 4 -5 12 -2 16 5 7
11 10 11 15 0 3 -8 3 -3 0 10 -4 16 -3 21 5 17 6 -4 11 -2 11 3 0 6 -7 11 -15
11 -8 0 -15 -6 -15 -14z"/>
<path d="M33 3112 c-1 -37 -1 -37 8 -7 4 16 5 33 1 37 -4 4 -8 -10 -9 -30z"/>
<path d="M4245 2884 c-27 -7 -88 -23 -135 -35 -47 -12 -121 -31 -165 -43 l-80
-21 -9 -63 c-4 -38 -4 -68 1 -73 5 -5 86 -43 180 -83 95 -41 185 -82 201 -90
16 -8 32 -12 36 -9 3 4 6 27 6 53 0 43 -3 48 -32 61 -28 12 -33 20 -36 54 -2
22 -1 64 3 92 6 52 7 53 46 59 32 5 39 11 39 29 0 12 3 37 6 54 7 35 8 35 -61
15z m-115 -191 c-3 -32 -10 -57 -15 -56 -33 8 -185 68 -185 74 0 4 22 10 49
14 27 4 71 12 98 19 26 7 50 12 53 10 3 -1 3 -29 0 -61z"/>
<path d="M3836 2409 c-4 -28 -6 -52 -4 -54 13 -10 210 -115 217 -115 5 0 13
-6 19 -13 9 -11 -10 -16 -102 -25 -62 -7 -127 -12 -144 -12 -34 0 -42 -15 -45
-80 -2 -31 1 -33 78 -61 44 -16 98 -38 121 -48 22 -11 64 -27 92 -36 98 -32
61 -32 -116 1 -97 19 -183 34 -190 34 -14 0 -42 -58 -42 -87 0 -11 32 -41 83
-76 45 -32 96 -70 114 -85 l31 -27 -136 6 c-75 3 -144 2 -153 -2 -20 -10 -46
-86 -33 -98 9 -10 67 -41 224 -124 52 -28 104 -56 115 -64 27 -18 34 -17 45
12 27 72 31 67 -92 129 -121 62 -149 81 -108 72 14 -3 78 -8 142 -11 l117 -6
17 33 c20 38 29 28 -131 143 -92 67 -93 72 -15 54 57 -13 204 -39 206 -36 8
10 35 112 40 148 l6 46 -48 18 c-27 10 -80 29 -119 43 -38 13 -74 28 -78 32
-4 4 55 13 132 20 l140 13 6 28 c9 39 4 44 -73 83 -37 19 -91 47 -119 63 l-53
29 144 -4 143 -4 7 47 c4 26 6 48 4 50 -2 1 -100 5 -219 9 l-216 7 -7 -52z"/>
<path d="M21 2413 c-1 -12 4 -25 9 -28 12 -7 12 2 0 30 -8 19 -9 19 -9 -2z"/>
<path d="M37 2341 c-4 -17 -3 -21 5 -13 5 5 8 16 6 23 -3 8 -7 3 -11 -10z"/>
<path d="M50 2311 c0 -7 -4 -10 -9 -7 -5 3 -11 0 -14 -7 -3 -8 1 -14 9 -14 14
0 28 26 19 35 -3 3 -5 0 -5 -7z"/>
<path d="M121 2110 c0 -8 4 -22 9 -30 12 -18 12 -2 0 25 -6 13 -9 15 -9 5z"/>
<path d="M167 1982 c3 -8 0 -18 -7 -22 -8 -5 -9 -9 -1 -14 6 -4 11 -2 11 4 0
6 4 9 9 5 5 -3 12 -1 16 5 3 5 1 10 -5 10 -7 0 -10 6 -7 13 3 8 -1 14 -8 14
-7 0 -11 -7 -8 -15z"/>
<path d="M3593 1603 c-4 -10 -23 -45 -42 -78 -20 -33 -43 -77 -53 -97 -16 -36
-16 -37 5 -50 12 -8 38 -20 57 -28 19 -7 42 -19 50 -25 8 -6 33 -21 55 -32 22
-10 75 -38 117 -62 l78 -42 28 58 c16 32 43 83 60 114 l32 55 -38 22 -38 21
-34 -62 c-18 -34 -35 -64 -36 -66 -4 -4 -74 28 -74 34 0 1 16 31 34 64 l35 61
-38 20 c-29 14 -41 16 -50 7 -6 -6 -11 -15 -11 -19 0 -5 -11 -26 -25 -48 l-25
-40 -33 16 c-17 9 -34 18 -36 20 -2 2 13 32 33 68 l37 66 -33 20 c-40 24 -47
25 -55 3z"/>
<path d="M460 1590 c0 -5 5 -10 11 -10 5 0 7 5 4 10 -3 6 -8 10 -11 10 -2 0
-4 -4 -4 -10z"/>
<path d="M3441 1345 c-17 -20 -31 -38 -31 -40 0 -8 61 -62 188 -165 53 -43 63
-56 60 -78 -2 -19 -10 -28 -25 -30 -19 -3 -23 -10 -23 -43 0 -44 10 -48 63
-25 38 16 84 66 93 103 4 15 0 38 -8 57 -16 31 -33 48 -178 168 -41 34 -82 68
-91 75 -14 12 -20 9 -48 -22z"/>
<path d="M3274 1124 c-35 -17 -184 -150 -184 -164 0 -5 66 -75 146 -155 l146
-147 75 73 c108 107 130 162 103 259 -11 40 -91 123 -133 139 -41 16 -117 13
-153 -5z m151 -135 c36 -35 40 -44 39 -85 -1 -37 -7 -51 -35 -80 l-33 -34 -83
82 c-46 45 -83 87 -83 94 0 17 45 54 76 63 44 13 75 3 119 -40z"/>
<path d="M2890 838 c-19 -12 -37 -23 -39 -24 -2 -2 10 -25 26 -51 17 -26 45
-75 63 -108 18 -33 42 -72 54 -86 11 -14 33 -47 48 -73 28 -46 28 -46 55 -32
65 34 67 38 43 77 -12 18 -55 88 -95 154 -83 136 -103 165 -113 165 -4 0 -23
-10 -42 -22z"/>
<path d="M2685 721 c-27 -10 -79 -32 -115 -48 -36 -16 -85 -33 -110 -37 -78
-12 -77 -6 -6 -229 l25 -79 -44 39 c-43 38 -60 51 -183 140 l-63 45 -45 -12
c-53 -15 -59 -23 -46 -58 12 -31 84 -266 102 -330 7 -27 16 -41 23 -38 7 2 29
10 50 17 20 7 37 17 37 23 0 6 -18 65 -40 131 -22 66 -40 124 -40 128 0 5 15
-3 33 -18 17 -15 81 -63 141 -107 91 -66 114 -78 135 -73 14 3 39 9 54 12 21
4 27 10 22 22 -6 15 -26 76 -81 253 -13 43 -24 83 -24 90 0 7 39 -65 86 -159
47 -95 89 -173 93 -173 4 0 45 18 91 41 88 43 142 85 166 131 16 31 18 107 4
159 -19 67 -123 149 -190 148 -14 0 -47 -8 -75 -18z m116 -107 c49 -44 65
-148 30 -183 -42 -42 -101 -60 -101 -31 0 5 -21 52 -47 105 -25 52 -44 98 -40
101 3 3 23 12 44 20 43 16 89 11 114 -12z"/>
<path d="M1897 503 c-45 -5 -46 -6 -77 -168 -13 -66 -31 -158 -40 -204 l-17
-83 51 7 c56 7 66 16 66 61 l0 32 85 7 c88 7 115 0 115 -31 0 -22 33 -33 78
-27 23 3 42 7 42 10 0 3 -29 59 -180 348 -28 54 -37 57 -123 48z m118 -261
c-7 -7 -108 -22 -113 -17 -5 5 15 158 25 190 5 15 17 -3 50 -74 24 -52 41 -96
38 -99z"/>
<path d="M85 450 c-4 -7 -10 -104 -13 -216 l-5 -204 57 0 56 0 0 81 c0 46 4
78 9 75 5 -4 27 -39 50 -80 22 -40 47 -76 56 -80 22 -8 105 -8 105 1 0 4 -24
43 -52 87 -35 53 -49 81 -40 84 31 10 72 57 82 92 13 50 -9 111 -54 143 -26
19 -47 22 -137 25 -77 3 -109 1 -114 -8z m176 -90 c24 -13 26 -72 3 -94 -8 -9
-31 -16 -50 -16 l-34 0 0 60 0 60 31 0 c17 0 39 -5 50 -10z"/>
<path d="M460 424 c-38 -35 -40 -39 -40 -95 0 -68 16 -89 89 -115 94 -33 93
-32 89 -66 -4 -46 -39 -62 -87 -42 -19 8 -43 22 -52 30 -16 14 -19 13 -35 -13
-10 -15 -22 -34 -27 -40 -11 -16 104 -73 146 -73 67 0 150 64 161 125 14 75
-20 121 -117 155 -62 22 -75 39 -59 74 14 30 50 35 96 11 16 -9 30 -14 31 -13
10 12 25 49 25 61 0 21 -53 37 -121 37 -54 0 -63 -3 -99 -36z"/>
<path d="M750 279 l0 -171 32 -37 c83 -95 236 -92 313 6 l30 38 3 168 3 167
-55 0 -55 0 -3 -154 c-3 -135 -5 -157 -22 -175 -27 -29 -96 -29 -122 0 -17 19
-19 36 -17 175 l2 154 -55 0 -54 0 0 -171z"/>
<path d="M1182 238 l3 -213 80 -3 c117 -5 178 11 233 62 51 47 72 88 72 143 0
92 -46 170 -120 202 -40 17 -69 21 -160 21 l-110 0 2 -212z m218 105 c38 -22
55 -57 54 -112 -1 -79 -48 -121 -136 -121 l-28 0 0 125 0 125 41 0 c22 0 54
-8 69 -17z"/>
</g>
</svg>
