<?xml version="1.0" standalone="no"?>
<!DOCTYPE svg PUBLIC "-//W3C//DTD SVG 20010904//EN"
 "http://www.w3.org/TR/2001/REC-SVG-20010904/DTD/svg10.dtd">
<svg version="1.0" xmlns="http://www.w3.org/2000/svg"
 width="1200.000000pt" height="1705.000000pt" viewBox="0 0 1200.000000 1705.000000"
 preserveAspectRatio="xMidYMid meet">

<g transform="translate(0.000000,1705.000000) scale(0.100000,-0.100000)"
fill="#000000" stroke="none">
<path d="M5890 16949 c-308 -16 -587 -89 -886 -233 -250 -121 -461 -267 -661
-459 -268 -257 -458 -517 -628 -862 -197 -399 -312 -831 -341 -1277 l-7 -108
-1264 0 c-898 0 -1277 -3 -1308 -11 -57 -15 -128 -76 -150 -131 -13 -31 -17
-70 -16 -143 0 -115 347 -7822 357 -7935 30 -368 205 -687 475 -871 140 -95
289 -148 475 -169 72 -8 1210 -10 4124 -8 l4025 3 90 22 c50 11 122 33 160 47
359 136 621 458 690 846 10 57 78 1378 210 4050 107 2181 195 4000 195 4043 0
92 -16 137 -68 190 -69 71 8 67 -1404 67 l-1268 0 0 49 c0 152 -52 485 -110
708 -115 440 -317 847 -592 1196 -177 223 -466 482 -704 629 -334 207 -740
339 -1084 354 -63 3 -128 6 -145 7 -16 2 -91 0 -165 -4z m285 -709 c404 -39
766 -214 1078 -519 264 -258 456 -571 581 -944 67 -202 116 -451 132 -669 l7
-98 -1942 0 -1941 0 0 43 c0 66 28 292 51 407 139 709 557 1304 1119 1594 298
154 605 216 915 186z m150 -3765 c394 -51 724 -152 1065 -326 209 -106 335
-189 356 -232 16 -32 15 -35 -11 -88 -15 -30 -68 -118 -118 -197 -113 -180
-122 -183 -254 -98 -314 202 -654 329 -1034 387 -196 30 -489 32 -634 5 -412
-77 -730 -309 -864 -630 -48 -116 -64 -197 -63 -321 2 -428 305 -751 940
-1004 53 -21 197 -73 318 -115 122 -41 271 -94 330 -116 867 -330 1379 -716
1570 -1183 159 -392 126 -895 -86 -1306 -249 -480 -688 -770 -1334 -881 -632
-108 -1504 65 -2060 408 -269 166 -496 343 -496 386 0 17 99 172 228 356 44
64 78 85 115 71 13 -5 68 -44 121 -85 546 -427 1234 -649 1814 -585 313 34
611 140 811 289 381 284 505 746 306 1145 -124 249 -365 465 -713 639 -151 76
-259 119 -482 193 -338 112 -846 312 -1053 414 -236 116 -506 335 -658 534
-273 355 -350 812 -212 1250 146 461 549 841 1070 1009 167 54 263 73 503 100
72 9 409 -4 525 -19z"/>
<path d="M815 3735 c-438 -81 -720 -441 -640 -819 39 -186 163 -343 364 -463
81 -49 344 -155 513 -208 284 -88 448 -186 534 -321 132 -206 48 -462 -189
-579 -300 -148 -675 -95 -1033 147 -84 56 -110 69 -123 62 -31 -20 -141 -188
-138 -214 4 -47 192 -176 367 -251 310 -134 664 -155 965 -59 123 40 205 90
301 185 127 125 190 254 214 438 27 200 -33 384 -170 526 -142 147 -336 251
-712 380 -240 82 -290 103 -380 160 -193 122 -262 301 -181 474 65 136 201
231 380 264 73 14 104 14 192 5 179 -19 295 -57 473 -154 47 -27 92 -48 100
-48 19 0 44 29 101 113 66 97 67 105 23 143 -47 41 -218 124 -321 158 -219 70
-465 94 -640 61z"/>
<path d="M2255 3728 c-3 -13 -4 -637 -3 -1388 l3 -1365 143 -3 142 -3 10 26
c6 16 10 213 10 498 0 289 5 489 11 517 17 76 70 169 129 229 104 106 222 155
370 153 229 -1 418 -142 491 -367 9 -30 14 -171 18 -545 l6 -505 145 0 145 0
0 525 c0 585 1 578 -71 730 -101 213 -305 380 -539 441 -112 28 -290 28 -399
-1 -94 -25 -182 -64 -253 -113 l-53 -36 0 589 c0 358 -4 599 -10 614 l-10 26
-140 0 c-137 0 -140 0 -145 -22z"/>
<path d="M4829 2691 c-97 -21 -226 -78 -316 -139 -73 -50 -197 -180 -242 -255
-73 -123 -110 -248 -118 -398 -13 -236 66 -452 225 -620 480 -509 1341 -284
1497 392 22 97 22 270 0 367 -73 315 -300 552 -617 643 -107 30 -313 35 -429
10z m316 -286 c203 -42 371 -199 431 -400 24 -80 24 -220 0 -300 -37 -126
-116 -236 -224 -309 -233 -160 -540 -132 -736 67 -114 115 -166 238 -166 392
0 157 52 280 169 395 145 144 326 197 526 155z"/>
<path d="M6215 2698 c-3 -7 -4 -598 -3 -1313 l3 -1300 140 0 140 0 3 548 c1
301 6 547 11 547 4 0 28 -15 52 -33 160 -122 344 -175 567 -164 134 6 227 29
335 83 253 127 423 348 474 619 18 95 13 280 -10 365 -87 317 -316 546 -632
632 -113 30 -325 30 -439 -1 -97 -26 -223 -86 -294 -141 -29 -22 -54 -40 -57
-40 -2 0 -6 46 -7 103 l-3 102 -138 3 c-104 2 -139 -1 -142 -10z m1000 -303
c103 -26 183 -73 265 -155 149 -149 202 -341 150 -544 -26 -102 -69 -176 -149
-256 -323 -322 -867 -160 -967 287 -30 134 -4 280 71 409 66 114 219 226 351
258 79 19 206 19 279 1z"/>
<path d="M8921 2695 c-208 -46 -397 -176 -517 -357 -169 -254 -188 -592 -49
-868 107 -214 312 -380 550 -444 83 -23 347 -32 456 -17 167 25 349 101 465
196 68 56 67 69 -10 185 -37 55 -73 100 -81 100 -8 0 -44 -23 -80 -50 -86 -65
-144 -94 -247 -124 -110 -31 -206 -39 -314 -26 -166 21 -286 78 -392 188 -53
56 -128 191 -134 242 l-3 25 652 5 651 5 26 24 c23 22 26 32 26 98 0 394 -308
760 -692 823 -86 14 -230 11 -307 -5z m270 -285 c30 -5 91 -28 137 -50 121
-60 210 -153 262 -276 l19 -44 -509 0 c-584 0 -534 -11 -478 100 39 80 134
176 214 218 107 56 234 74 355 52z"/>
<path d="M10910 2695 c-328 -70 -577 -325 -647 -663 -21 -105 -13 -308 16
-410 73 -251 275 -475 510 -563 129 -48 167 -54 371 -54 170 0 207 3 284 23
187 47 416 182 416 245 0 40 -120 217 -147 217 -8 0 -35 -18 -59 -39 -61 -53
-187 -117 -281 -142 -57 -16 -110 -21 -198 -22 -212 0 -338 46 -466 173 -77
76 -141 181 -155 258 l-6 32 651 0 652 0 24 25 c14 13 25 34 26 47 9 278 -109
543 -314 708 -72 58 -216 132 -302 155 -83 23 -291 28 -375 10z m285 -290
c154 -39 299 -154 363 -286 18 -37 32 -69 32 -73 0 -3 -229 -6 -510 -6 -366 0
-510 3 -510 11 0 6 14 41 32 78 39 83 149 196 228 234 117 56 250 71 365 42z"/>
</g>
</svg>
